<svg xmlns="http://www.w3.org/2000/svg" version="1.0" width="1080.000000pt" height="1080.000000pt" viewBox="0 0 1080.000000 1080.000000" preserveAspectRatio="xMidYMid meet">

<g transform="translate(0.000000,1080.000000) scale(0.100000,-0.100000)" fill="#B08F26" stroke="none">
<path d="M5175 9094 c-16 -2 -86 -9 -155 -15 -381 -34 -827 -146 -1178 -295 -1061 -454 -1873 -1328 -2238 -2409 -372 -1105 -254 -2285 332 -3301 242 -420 589 -820 978 -1128 797 -631 1816 -938 2815 -851 731 65 1412 313 1991 726 683 487 1196 1172 1469 1964 289 835 293 1729 11 2575 -254 764 -735 1435 -1375 1920 -584 443 -1239 704 -1995 795 -126 16 -585 29 -655 19z m475 -534 c1040 -76 1995 -617 2596 -1470 459 -651 686 -1475 624 -2256 -79 -978 -537 -1848 -1295 -2459 -481 -387 -1055 -634 -1700 -731 -165 -25 -205 -27 -475 -27 -270 0 -310 2 -475 27 -732 110 -1381 418 -1888 895 -322 303 -549 603 -735 968 -587 1155 -491 2516 252 3583 171 246 426 518 668 712 681 548 1559 822 2428 758z"/>
<path d="M3007 6713 c-4 -3 -7 -647 -7 -1430 l0 -1423 260 0 260 0 0 946 0 945 27 -3 c26 -3 35 -28 354 -943 l327 -940 237 0 237 0 328 940 c241 693 331 941 344 943 15 3 16 -70 16 -942 l0 -946 280 0 280 0 0 650 0 650 640 0 640 0 0 -650 0 -650 280 0 280 0 0 1430 0 1430 -277 -2 -278 -3 -3 -537 -2 -538 -640 0 -640 0 0 540 0 540 -359 0 c-231 0 -362 -4 -366 -10 -6 -10 -715 -2078 -715 -2086 0 -2 -11 -4 -24 -4 -26 0 19 -124 -500 1385 l-244 710 -364 3 c-201 1 -367 -1 -371 -5z"/>
</g>
</svg>
